<svg width="232" height="97" viewBox="0 0 232 97" fill="none" xmlns="http://www.w3.org/2000/svg">
<g clip-path="url(#clip0_23_177)">
<path d="M25.2287 49.4113H12.0209C5.08044 49.4113 0 44.5581 0 37.9104V11.5009C0 4.85314 5.08044 0 12.0209 0H25.2287C32.1692 0 37.2496 4.85314 37.2496 11.5009V14.9924H28.6157V10.9004C28.6157 9.19653 27.179 7.75106 25.6521 7.75106H11.5976C10.0707 7.75106 8.63398 9.19653 8.63398 10.9004V38.2456C8.63398 39.9494 10.0707 41.3949 11.5976 41.3949H25.6521C27.179 41.3949 28.6157 39.9494 28.6157 38.2456V28.6161H18.5381V20.6904H37.2496V37.8964C37.2496 44.5442 32.1692 49.3973 25.2287 49.3973V49.4113Z" fill="#E418CD"/>
<path d="M75.8666 49.4113H62.8254C55.8849 49.4113 50.8044 44.5581 50.8044 37.9104V0H59.6119V38.3363C59.6119 40.0402 61.0486 41.4856 62.5755 41.4856H76.1234C77.6503 41.4856 79.087 40.0402 79.087 38.3363V0H87.8945V37.9104C87.8945 44.5581 82.814 49.4113 75.8735 49.4113H75.8666Z" fill="#E418CD"/>
<path d="M101.435 49.4113V0H133.271V7.92563H109.903V20.7044H128.024V28.7976H109.903V41.4926H133.271V49.4183H101.435V49.4113Z" fill="#E418CD"/>
<path d="M171.042 49.5789H158C151.06 49.5789 145.979 44.7257 145.979 38.078V34.9287H154.447V38.5039C154.447 40.2078 155.884 41.6532 157.41 41.6532H171.638C173.165 41.6532 174.602 40.2078 174.602 38.5039V32.1145C174.602 27.0868 164.608 28.7907 158.347 28.6231C151.49 28.3647 146.327 23.7699 146.327 17.0384V11.5009C146.327 4.85314 151.407 0 158.347 0H170.368C177.309 0 182.389 4.85314 182.389 11.5009V14.741H173.922V11.0749C173.922 9.3711 172.485 7.92564 170.958 7.92564H157.751C156.224 7.92564 154.787 9.3711 154.787 11.0749V17.5481C154.787 22.5758 164.781 20.872 171.042 20.9558C177.816 21.1234 183.063 25.8089 183.063 32.5405V38.078C183.063 44.7257 177.982 49.5789 171.042 49.5789Z" fill="#E418CD"/>
<path d="M219.979 49.5789H206.938C199.997 49.5789 194.917 44.7257 194.917 38.078V34.9287H203.384V38.5039C203.384 40.2078 204.821 41.6532 206.348 41.6532H220.576C222.103 41.6532 223.54 40.2078 223.54 38.5039V32.1145C223.54 27.0868 213.545 28.7907 207.285 28.6231C200.428 28.3647 195.264 23.7699 195.264 17.0384V11.5009C195.264 4.85314 200.344 0 207.285 0H219.306C226.246 0 231.327 4.85314 231.327 11.5009V14.741H222.859V11.0749C222.859 9.3711 221.423 7.92564 219.896 7.92564H206.688C205.161 7.92564 203.724 9.3711 203.724 11.0749V17.5481C203.724 22.5758 213.719 20.872 219.979 20.9558C226.753 21.1234 232 25.8089 232 32.5405V38.078C232 44.7257 226.92 49.5789 219.979 49.5789Z" fill="#E418CD"/>
<path d="M45.4186 96.8952V74.3473L39.6788 80.9951H36.3196L30.5798 74.3473V96.8952H25.0552V65.3044H29.5457L38.1519 75.3808C38.3671 74.7244 46.4319 65.3044 46.4319 65.3044H50.9224V96.8952H45.3978H45.4186Z" fill="#E418CD"/>
<path d="M83.4248 96.8952H77.9557V86.9306H65.0741V96.8952H59.605V77.6642C59.605 75.4297 59.9867 74.0122 61.6594 72.434L69.1274 65.2975H73.8885L81.3565 72.434C83.0361 74.0122 83.4109 75.4297 83.4109 77.6642V96.8952H83.4248ZM77.9557 77.9366C77.9557 76.7914 77.9001 76.519 77.2547 75.8696L71.4594 70.0947C71.1887 70.5277 65.7751 75.8696 65.7751 75.8696C65.1227 76.526 65.0741 76.7984 65.0741 77.9366V82.1333H77.9557V77.9366Z" fill="#E418CD"/>
<path d="M107.564 97H99.2283C94.7864 97 91.5382 93.8926 91.5382 89.647V87.6289H96.9518V89.9193C96.9518 91.0086 97.8749 91.9374 98.8466 91.9374H107.939C108.91 91.9374 109.833 91.0086 109.833 89.9193V85.8343C109.833 82.6221 103.441 83.7115 99.4365 83.5997C95.0501 83.4391 91.7464 80.4923 91.7464 76.1908V72.6505C91.7464 68.4049 94.9946 65.2975 99.4365 65.2975H107.127C111.568 65.2975 114.817 68.4049 114.817 72.6505V74.7174H109.403V72.3782C109.403 71.2888 108.48 70.3601 107.508 70.3601H99.0617C98.09 70.3601 97.167 71.2888 97.167 72.3782V76.519C97.167 79.7312 103.552 78.6418 107.564 78.6977C111.895 78.8094 115.254 81.8051 115.254 86.1066V89.647C115.254 93.8926 112.006 97 107.564 97Z" fill="#E418CD"/>
<path d="M137.019 70.3671V96.8952H131.224V70.3671H121.75V65.3044H146.549V70.3671H137.019Z" fill="#E418CD"/>
<path d="M153.579 96.8952V65.3044H173.936V70.3671H158.993V78.5371H170.577V83.7115H158.993V91.8256H173.936V96.8883H153.579V96.8952Z" fill="#E418CD"/>
<path d="M200.573 96.8953V86.3301C200.573 84.312 200.088 83.7184 198.352 83.7184H187.956V96.9022H182.598V65.3114H198.408C202.85 65.3114 206.098 68.4188 206.098 72.6645V76.0931C206.098 78.7606 204.904 80.234 203.988 81.051C204.96 81.7562 206.098 83.1738 206.098 85.6248V96.9022H200.573V96.8953ZM200.573 72.2734C200.573 71.1282 199.602 70.0947 198.679 70.0947H187.963V78.4812H198.089C200.095 78.4812 200.58 77.9366 200.58 76.0302V72.2734H200.573Z" fill="#E418CD"/>
</g>
<defs>
<clipPath id="clip0_23_177">
<rect width="232" height="97" fill="white"/>
</clipPath>
</defs>
</svg>
