<svg width="14" height="14" viewBox="0 0 14 14" fill="none" xmlns="http://www.w3.org/2000/svg">
<path d="M10.8889 6.61111C10.8889 5.9903 8.48911 6.32531 7.09967 4.83766C5.7112 3.35001 6.02387 0.777779 5.44444 0.777779C4.86502 0.777779 5.17769 3.34897 3.78922 4.83766C2.39978 6.32531 0 5.9903 0 6.61111C0 7.23192 2.39978 6.89692 3.78922 8.38456C5.17769 9.87221 4.86502 12.4444 5.44444 12.4444C6.02387 12.4444 5.7112 9.87326 7.09967 8.38456C8.48814 6.89587 10.8889 7.23192 10.8889 6.61111Z" fill="#F1E6F1"/>
<path d="M11.0569 10.4502C10.2633 9.75575 10.4417 8.55556 10.1111 8.55556C9.78051 8.55556 9.95895 9.75575 9.1653 10.4502C8.37165 11.1446 7 10.9885 7 11.2778C7 11.5671 8.37165 11.4109 9.1653 12.1054C9.95895 12.7998 9.78051 14 10.1111 14C10.4417 14 10.2633 12.7998 11.0569 12.1054C11.8506 11.4109 13.2222 11.5671 13.2222 11.2778C13.2222 10.9885 11.8506 11.1446 11.0569 10.4502Z" fill="#F1E6F1"/>
<path d="M9.13076 2.53596C9.62684 3.03203 9.51462 3.88889 9.72228 3.88889C9.92994 3.88889 9.81772 3.03203 10.3138 2.53596C10.8099 2.03988 11.6667 2.1521 11.6667 1.94444C11.6667 1.73679 10.8099 1.84901 10.3138 1.35293C9.81772 0.856856 9.92994 0 9.72228 0C9.51462 0 9.62684 0.856856 9.13076 1.35293C8.63469 1.84901 7.77783 1.73679 7.77783 1.94444C7.77783 2.1521 8.63469 2.03988 9.13076 2.53596Z" fill="#F1E6F1"/>
</svg>
