<svg width="11" height="13" viewBox="0 0 11 13" fill="none" xmlns="http://www.w3.org/2000/svg">
<path d="M6.625 5.27778V9.55556M4.375 5.27778V9.55556M2.125 2.83333V10.0444C2.125 10.729 2.125 11.071 2.24762 11.3324C2.35548 11.5624 2.52745 11.7497 2.73914 11.8669C2.97955 12 3.29443 12 3.92326 12H7.07674C7.70557 12 8.01999 12 8.26041 11.8669C8.47209 11.7497 8.64464 11.5624 8.7525 11.3324C8.875 11.0712 8.875 10.7295 8.875 10.0463V2.83333M2.125 2.83333H3.25M2.125 2.83333H1M3.25 2.83333H7.75M3.25 2.83333C3.25 2.26385 3.25 1.97925 3.33564 1.75464C3.44982 1.45516 3.66868 1.21708 3.94434 1.09304C4.15108 1 4.41332 1 4.9375 1H6.0625C6.58668 1 6.84878 1 7.05552 1.09304C7.33118 1.21708 7.55013 1.45516 7.66431 1.75464C7.74994 1.97925 7.75 2.26385 7.75 2.83333M7.75 2.83333H8.875M8.875 2.83333H10" stroke="#F1E6F1" stroke-linecap="round" stroke-linejoin="round"/>
</svg>
